grf
version=1
nRows=57
nColumns=19
inDegrees=yes
endheader
time	ground_force_1_vx	ground_force_1_vy	ground_force_1_vz	ground_force_1_px	ground_force_1_py	ground_force_1_pz	ground_moment_1_mx	ground_moment_1_my	ground_moment_1_mz	ground_force_2_vx	ground_force_2_vy	ground_force_2_vz	ground_force_2_px	ground_force_2_py	ground_force_2_pz	ground_moment_2_mx	ground_moment_2_my	ground_moment_2_mz
0.000000	0.000000	0.000000	0.000000	-0.384169	-0.000000	-0.181788	0.000000	0.000000	0.000000	0.000000	0.000000	0.000000	0.000000	0.000000	0.000000	0.000000	0.000000	0.000000
0.001000	0.000000	0.000000	0.000000	-0.384325	-0.000000	-0.181982	0.000000	0.000000	0.000000	0.000000	0.000000	0.000000	0.000000	0.000000	0.000000	0.000000	0.000000	0.000000
0.002000	0.000000	0.000000	0.000000	-0.384531	-0.000000	-0.182238	0.000000	0.000000	0.000000	0.000000	0.000000	0.000000	0.000000	0.000000	0.000000	0.000000	0.000000	0.000000
0.003000	0.000000	0.000000	0.000000	-0.384836	-0.000000	-0.182618	0.000000	0.000000	0.000000	0.000000	0.000000	0.000000	0.000000	0.000000	0.000000	0.000000	0.000000	0.000000
0.004000	0.000000	0.000000	0.000000	-0.385376	-0.000000	-0.183290	0.000000	0.000000	0.000000	0.000000	0.000000	0.000000	0.000000	0.000000	0.000000	0.000000	0.000000	0.000000
0.005000	0.000000	0.000000	0.000000	-0.386708	-0.000000	-0.184947	0.000000	0.000000	0.000000	0.000000	0.000000	0.000000	0.000000	0.000000	0.000000	0.000000	0.000000	0.000000
0.006000	0.000000	0.000000	0.000000	-0.397661	-0.000000	-0.198574	0.000000	0.000000	0.000000	0.000000	0.000000	0.000000	0.000000	0.000000	0.000000	0.000000	0.000000	0.000000
0.007000	0.000000	0.000000	0.000000	-0.378726	-0.000000	-0.175016	0.000000	0.000000	0.000000	0.000000	0.000000	0.000000	0.000000	0.000000	0.000000	0.000000	0.000000	0.000000
0.008000	0.000000	0.000000	0.000000	-0.381714	-0.000000	-0.178734	0.000000	0.000000	0.000000	0.000000	0.000000	0.000000	0.000000	0.000000	0.000000	0.000000	0.000000	0.000000
0.009000	0.000000	0.000000	0.000000	-0.382540	-0.000000	-0.179762	0.000000	0.000000	0.000000	0.000000	0.000000	0.000000	0.000000	0.000000	0.000000	0.000000	0.000000	0.000000
0.010000	0.000000	0.000000	0.000000	-0.382944	-0.000000	-0.180264	0.000000	0.000000	0.000000	0.000000	0.000000	0.000000	0.000000	0.000000	0.000000	0.000000	0.000000	0.000000
0.011000	0.000000	0.000000	0.000000	-0.383195	-0.000000	-0.180576	0.000000	0.000000	0.000000	0.000000	0.000000	0.000000	0.000000	0.000000	0.000000	0.000000	0.000000	0.000000
0.012000	0.000000	0.000000	0.000000	-0.383373	-0.000000	-0.180798	0.000000	0.000000	0.000000	0.000000	0.000000	0.000000	0.000000	0.000000	0.000000	0.000000	0.000000	0.000000
0.013000	0.000000	0.000000	0.000000	-0.383514	-0.000000	-0.180974	0.000000	0.000000	0.000000	0.000000	0.000000	0.000000	0.000000	0.000000	0.000000	0.000000	0.000000	0.000000
0.014000	0.000000	0.000000	0.000000	-0.383635	-0.000000	-0.181123	0.000000	0.000000	0.000000	0.000000	0.000000	0.000000	0.000000	0.000000	0.000000	0.000000	0.000000	0.000000
0.015000	0.000000	0.000000	0.000000	-0.383744	-0.000000	-0.181259	0.000000	0.000000	0.000000	0.000000	0.000000	0.000000	0.000000	0.000000	0.000000	0.000000	0.000000	0.000000
0.016000	0.000000	0.000000	0.000000	-0.383849	-0.000000	-0.181390	0.000000	0.000000	0.000000	0.000000	0.000000	0.000000	0.000000	0.000000	0.000000	0.000000	0.000000	0.000000
0.017000	0.000000	0.000000	0.000000	-0.383957	-0.000000	-0.181524	0.000000	0.000000	0.000000	0.000000	0.000000	0.000000	0.000000	0.000000	0.000000	0.000000	0.000000	0.000000
0.018000	0.000000	0.000000	0.000000	-0.384073	-0.000000	-0.181668	0.000000	0.000000	0.000000	0.000000	0.000000	0.000000	0.000000	0.000000	0.000000	0.000000	0.000000	0.000000
0.019000	0.000000	0.000000	0.000000	-0.384207	-0.000000	-0.181835	0.000000	0.000000	0.000000	0.000000	0.000000	0.000000	0.000000	0.000000	0.000000	0.000000	0.000000	0.000000
0.020000	0.000000	0.000000	0.000000	-0.384373	-0.000000	-0.182042	0.000000	0.000000	0.000000	0.000000	0.000000	0.000000	0.000000	0.000000	0.000000	0.000000	0.000000	0.000000
0.021000	0.000000	0.000000	0.000000	-0.384599	-0.000000	-0.182323	0.000000	0.000000	0.000000	0.000000	0.000000	0.000000	0.000000	0.000000	0.000000	0.000000	0.000000	0.000000
0.022000	0.000000	0.000000	0.000000	-0.384946	-0.000000	-0.182755	0.000000	0.000000	0.000000	0.000000	0.000000	0.000000	0.000000	0.000000	0.000000	0.000000	0.000000	0.000000
0.023000	0.000000	0.000000	0.000000	-0.385602	-0.000000	-0.183571	0.000000	0.000000	0.000000	0.000000	0.000000	0.000000	0.000000	0.000000	0.000000	0.000000	0.000000	0.000000
0.024000	0.000000	0.000000	0.000000	-0.387490	-0.000000	-0.185920	0.000000	0.000000	0.000000	0.000000	0.000000	0.000000	0.000000	0.000000	0.000000	0.000000	0.000000	0.000000
0.025000	0.000000	0.000000	0.000000	-1.111809	-0.000000	-1.087065	0.000000	0.000000	0.000000	0.000000	0.000000	0.000000	0.000000	0.000000	0.000000	0.000000	0.000000	0.000000
0.026000	0.000000	0.000000	0.000000	-0.380093	-0.000000	-0.176717	0.000000	0.000000	0.000000	0.000000	0.000000	0.000000	0.000000	0.000000	0.000000	0.000000	0.000000	0.000000
0.027000	0.000000	0.000000	0.000000	-0.382010	-0.000000	-0.179101	0.000000	0.000000	0.000000	0.000000	0.000000	0.000000	0.000000	0.000000	0.000000	0.000000	0.000000	0.000000
0.028000	0.000000	0.000000	0.000000	-0.382671	-0.000000	-0.179924	0.000000	0.000000	0.000000	0.000000	0.000000	0.000000	0.000000	0.000000	0.000000	0.000000	0.000000	0.000000
0.029000	0.000000	0.000000	0.000000	-0.383020	-0.000000	-0.180359	0.000000	0.000000	0.000000	0.000000	0.000000	0.000000	0.000000	0.000000	0.000000	0.000000	0.000000	0.000000
0.030000	0.000000	0.000000	0.000000	-0.383247	-0.000000	-0.180641	0.000000	0.000000	0.000000	0.000000	0.000000	0.000000	0.000000	0.000000	0.000000	0.000000	0.000000	0.000000
0.031000	0.000000	0.000000	0.000000	-0.383414	-0.000000	-0.180848	0.000000	0.000000	0.000000	0.000000	0.000000	0.000000	0.000000	0.000000	0.000000	0.000000	0.000000	0.000000
0.032000	0.000000	0.000000	0.000000	-0.383548	-0.000000	-0.181015	0.000000	0.000000	0.000000	0.000000	0.000000	0.000000	0.000000	0.000000	0.000000	0.000000	0.000000	0.000000
0.033000	0.000000	0.000000	0.000000	-0.383664	-0.000000	-0.181160	0.000000	0.000000	0.000000	0.000000	0.000000	0.000000	0.000000	0.000000	0.000000	0.000000	0.000000	0.000000
0.034000	0.000000	0.000000	0.000000	-0.383772	-0.000000	-0.181294	0.000000	0.000000	0.000000	0.000000	0.000000	0.000000	0.000000	0.000000	0.000000	0.000000	0.000000	0.000000
0.035000	0.000000	0.000000	0.000000	-0.383877	-0.000000	-0.181425	0.000000	0.000000	0.000000	0.000000	0.000000	0.000000	0.000000	0.000000	0.000000	0.000000	0.000000	0.000000
0.036000	0.000000	0.000000	0.000000	-0.383986	-0.000000	-0.181561	0.000000	0.000000	0.000000	0.000000	0.000000	0.000000	0.000000	0.000000	0.000000	0.000000	0.000000	0.000000
0.037000	0.000000	0.000000	0.000000	-0.384106	-0.000000	-0.181710	0.000000	0.000000	0.000000	0.000000	0.000000	0.000000	0.000000	0.000000	0.000000	0.000000	0.000000	0.000000
0.038000	0.000000	0.000000	0.000000	-0.384247	-0.000000	-0.181885	0.000000	0.000000	0.000000	0.000000	0.000000	0.000000	0.000000	0.000000	0.000000	0.000000	0.000000	0.000000
0.039000	0.000000	0.000000	0.000000	-0.384425	-0.000000	-0.182107	0.000000	0.000000	0.000000	0.000000	0.000000	0.000000	0.000000	0.000000	0.000000	0.000000	0.000000	0.000000
0.040000	0.000000	0.000000	0.000000	-0.384675	-0.000000	-0.182417	0.000000	0.000000	0.000000	0.000000	0.000000	0.000000	0.000000	0.000000	0.000000	0.000000	0.000000	0.000000
0.041000	0.000000	0.000000	0.000000	-0.385076	-0.000000	-0.182916	0.000000	0.000000	0.000000	0.000000	0.000000	0.000000	0.281358	0.000000	-0.232035	0.000000	0.000000	0.000000
0.042000	0.000000	0.000000	0.000000	-0.385894	-0.000000	-0.183935	0.000000	0.000000	0.000000	0.000000	0.000000	0.000000	0.281358	0.000000	-0.232035	0.000000	0.000000	0.000000
0.043000	0.000000	0.000000	0.000000	-0.388825	-0.000000	-0.187581	0.000000	0.000000	0.000000	0.000000	0.000000	0.000000	0.280858	0.000000	-0.232035	0.000000	0.000000	0.000000
0.044000	0.000000	0.000000	0.000000	-0.369412	-0.000000	-0.163428	0.000000	0.000000	0.000000	0.000000	0.000000	0.000000	0.280858	0.000000	-0.232035	0.000000	0.000000	0.000000
0.045000	0.000000	0.000000	0.000000	-0.380890	-0.000000	-0.177708	0.000000	0.000000	0.000000	0.000000	0.000000	0.000000	0.281025	0.000000	-0.232035	0.000000	0.000000	0.000000
0.046000	0.000000	0.000000	0.000000	-0.382238	-0.000000	-0.179386	0.000000	0.000000	0.000000	0.000000	0.000000	0.000000	0.031108	0.000000	-0.232035	0.000000	0.000000	0.000000
0.047000	0.000000	0.000000	0.000000	-0.382782	-0.000000	-0.180062	0.000000	0.000000	0.000000	0.000000	0.000000	0.000000	0.080958	0.000000	-0.232035	0.000000	0.000000	0.000000
0.048000	0.000000	0.000000	0.000000	-0.383089	-0.000000	-0.180444	0.000000	0.000000	0.000000	0.000000	0.000000	0.000000	0.114358	0.000000	-0.398702	0.000000	0.000000	0.000000
0.049000	0.000000	0.000000	0.000000	-0.383295	-0.000000	-0.180701	0.000000	0.000000	0.000000	0.000000	0.000000	0.000000	0.138072	0.000000	-0.374892	0.000000	0.000000	0.000000
0.050000	0.000000	0.000000	0.000000	-0.383451	-0.000000	-0.180895	0.000000	0.000000	0.000000	0.000000	0.000000	0.000000	0.155983	0.000000	-0.357035	0.000000	0.000000	0.000000
0.051000	0.000000	0.000000	0.000000	-0.383580	-0.000000	-0.181055	0.000000	0.000000	0.000000	0.000000	0.000000	0.000000	0.169914	0.000000	-0.343146	0.000000	0.000000	0.000000
0.052000	0.000000	0.000000	0.000000	-0.383693	-0.000000	-0.181196	0.000000	0.000000	0.000000	0.000000	0.000000	0.000000	0.180958	0.000000	-0.331981	0.000000	0.000000	0.000000
0.053000	0.000000	0.000000	0.000000	-0.383799	-0.000000	-0.181328	0.000000	0.000000	0.000000	0.000000	0.000000	0.000000	0.080958	0.000000	-0.331981	0.000000	0.000000	0.000000
0.054000	0.000000	0.000000	0.000000	-0.383905	-0.000000	-0.181460	0.000000	0.000000	0.000000	0.000000	0.000000	0.000000	0.180958	0.000000	-0.331981	0.000000	0.000000	0.000000
0.055000	0.000000	0.000000	0.000000	-0.384016	-0.000000	-0.181598	0.000000	0.000000	0.000000	0.000000	0.000000	0.000000	0.169862	0.000000	-0.343086	0.000000	0.000000	0.000000
0.056000	0.000000	0.000000	0.000000	-0.384141	-0.000000	-0.181753	0.000000	0.000000	0.000000	0.000000	0.000000	0.000000	0.138149	0.000000	-0.374881	0.000000	0.000000	0.000000
